<svg xmlns="http://www.w3.org/2000/svg" width="702.73" height="664.524" viewBox="0 0 702.73 664.524">
  <g id="Group_10" data-name="Group 10" transform="translate(-565.635 -485.608)">
    <path id="Path_69" data-name="Path 69" d="M183,0A183,183,0,0,1,366,183V431A183,183,0,0,1,0,431V183A183,183,0,0,1,183,0Z" transform="translate(735.153 509.392)" fill="#efe4ef"/>
    <path id="Path_27" data-name="Path 27" d="M453.128,687.833A144.44,144.44,0,0,1,417.6,683.4c-24.846-6.312-43.358-16.958-61.9-35.6L344,636H330.1a137.751,137.751,0,0,1-21.763-1.5A126.164,126.164,0,0,1,288,629.4a120.222,120.222,0,0,1-28.516-13.884,116.183,116.183,0,0,1-23.21-20.316A113.445,113.445,0,0,1,209.9,540c-1.8-10.3-1.492-31.634.6-41.5a142.706,142.706,0,0,1,7.488-24.5A117.35,117.35,0,0,1,229.3,452.5a145.72,145.72,0,0,1,20.8-24.6,141.091,141.091,0,0,1,25.183-18.964A137.582,137.582,0,0,1,335,390.2c2.818-.233,5.851-.351,9.014-.351h.01c10.2,0,20.347,1.207,26.476,3.151a94.292,94.292,0,0,1,13.5,5.6c7.578,3.924,11.359,7.157,11.9,10.173a5.1,5.1,0,0,1-1.6,4.427,4.277,4.277,0,0,1-3.211,1.787c-1.925,0-4.195-1.671-7.589-5.587-10.175-11.871-22.853-17.4-39.9-17.4-28.495,0-57.248,10.077-80.963,28.375S221.746,464.046,214.3,491.8a61.576,61.576,0,0,0-2.25,11.163c-.38,3.943-.45,9-.45,17.537,0,16.388.309,20.131,2.2,26.7,6,21.707,14.412,36.314,30,52.1,17,17.3,40.265,29.094,65.5,33.2a156.144,156.144,0,0,0,22.007,1.469c6.7,0,10.693-.437,10.693-1.169,0-.6-1.31-3.215-3-5.7a108.293,108.293,0,0,1-14.014-33.578,121.851,121.851,0,0,1-2.924-36.447,116.242,116.242,0,0,1,7.9-35.134A95.339,95.339,0,0,1,348.4,492.3a80.764,80.764,0,0,1,11.838-10.2c4.489-3.2,8.339-5.274,10.563-5.7a10.416,10.416,0,0,1,2.03-.214,5.166,5.166,0,0,1,3.976,1.49,4.546,4.546,0,0,1,.994,3.625c-.154,1.531-.342,2.337-1.4,3.1s-2.981,1.476-6.8,2.8a70.243,70.243,0,0,0-13.488,6.213A60.113,60.113,0,0,0,345.1,502.1c-6.683,6.583-11.029,14.29-15,26.6-13.753,42.055-3.286,86.317,28,118.4,17.781,18.082,40.727,30.227,68.2,36.1,6.735,1.418,16.612,2.231,27.1,2.231a135.55,135.55,0,0,0,24.1-1.831c59.606-11.359,103.254-53.791,111.2-108.1,3.674-24.723-3-50.9-19.3-75.7-2.514-3.866-9.673-12.168-16.3-18.9a141.576,141.576,0,0,0-36.6-27c-4.539-2.372-8.108-4.307-8.3-4.5a.454.454,0,0,1-.2-.437c.04-.642.969-1.806,2.484-3.113A27,27,0,0,1,515.8,442.3c3.53-1.688,5.283-2.25,8.705-2.25.985,0,2.155.046,3.795.15a38.136,38.136,0,0,1,16.25,5.225c5.639,3.166,11.739,7.868,18.65,14.375a107.712,107.712,0,0,1,22.683,30.378,112.378,112.378,0,0,1,10.88,36.172,132.071,132.071,0,0,1-1.177,39.847A163.223,163.223,0,0,1,582.1,607.6,130.561,130.561,0,0,1,555,646a140.209,140.209,0,0,1-21.965,17.94,143.571,143.571,0,0,1-24.88,13.112,145.944,145.944,0,0,1-55.025,10.779h0ZM351.3,635.652a2.15,2.15,0,0,1-1.1-.152.644.644,0,0,1-.094-.757A5.414,5.414,0,0,1,354,632c4.518,0,20.71-5.654,31.5-11,27.232-13.317,49.611-36.426,61.4-63.4,2.183-4.963,11.245-32.821,20.2-62.1,18.572-60.78,18.5-60.8,17.324-61.192l-.025-.008c-.515-.207-9.4-5.931-19.4-12.5-15.01-9.807-20.45-14.05-29.1-22.7-10.717-10.667-18.674-21.58-24.325-33.362C405.9,353.911,402.411,340.913,400.9,326a125.924,125.924,0,0,1-.364-20.413,153.813,153.813,0,0,1,2.852-21.387A170.953,170.953,0,0,1,418.1,241.8a130.769,130.769,0,0,1,39.987-47.163,134.211,134.211,0,0,1,27.161-15.261A140.908,140.908,0,0,1,516,170.5c5.014-.874,13.27-1.376,22.651-1.376A167.335,167.335,0,0,1,563.1,170.6a138.5,138.5,0,0,1,28.812,8.375A144.139,144.139,0,0,1,618.7,193.2a137.3,137.3,0,0,1,17.963,15.462c6.532,6.506,12.013,12.825,15.037,17.337a126.536,126.536,0,0,1,16.175,33.213A121.928,121.928,0,0,1,673.1,295.2c0,27.936-9.331,54.034-25.6,71.6-7.6,8.2-20.473,17.2-24.6,17.2a5.875,5.875,0,0,1-4.495-1.869,5.064,5.064,0,0,1-1.2-4.031c.3-2.285,1.2-2.9,6.9-4.7,15.274-4.892,28.777-15.255,34.4-26.4,15.8-31.1,16.474-68.936,1.8-101.2l-3.7-8-6.7.6a113.007,113.007,0,0,0-32.537,8.437A120.9,120.9,0,0,0,587.9,264.5,148.135,148.135,0,0,0,541.7,330c-3.56,10.049-13.1,40.8-13.1,40.8-.325.542-12.729,41.6-23.5,77.3l-2.75,9.144c-27.307,90.815-27.829,92.55-30.25,98.556-7.661,19.2-19.121,35.329-34.063,47.937S404.76,625.372,383.5,630.6c-9.036,2.172-27.394,5.051-32.2,5.051h0ZM538.825,170.98A128.3,128.3,0,0,0,519,172.5c-49.561,7.861-91.365,42.8-106.5,89-3.8,11.7-4.9,19.1-4.9,33a103.722,103.722,0,0,0,9.2,43.2,110.946,110.946,0,0,0,20.713,31.975c8.768,9.49,20.045,18.649,35.488,28.825,10.561,7.042,19,12.3,19.48,12.3a.026.026,0,0,0,.019-.005c.207-.206,3.463-10.492,6.4-19.962,1.719-5.54,9.114-29.812,9.114-29.812S521.809,317.679,525.7,309.8a140.91,140.91,0,0,1,8.858-15.672,124.922,124.922,0,0,1,10.465-13.8,117.08,117.08,0,0,1,25.839-22.039,127.978,127.978,0,0,1,15.418-8.264A146.305,146.305,0,0,1,603.4,243.58a174.91,174.91,0,0,1,18.832-4.637c6.529-1.239,13.45-2.2,20.572-2.843,5.489-.481,10.582-1.181,10.9-1.5a.475.475,0,0,0,.126-.353c.047-2.537-9.806-15.227-18.825-24.248-11.291-11.29-19.492-17.3-32.5-23.8A142.233,142.233,0,0,0,538.825,170.98ZM646.5,488.5c-9.757,0-16.018-.482-21.612-1.662A64.385,64.385,0,0,1,607.7,480.3a48.756,48.756,0,0,1-9.054-5.853c-2.1-1.828-3.258-3.512-3.543-5.148a5.178,5.178,0,0,1,1.6-4.5,3.872,3.872,0,0,1,2.863-1.6c1.043,0,2.285.572,3.908,1.8a65.951,65.951,0,0,1,6.33,5.8c11.667,11.849,21.151,16.049,36.244,16.049,1.614,0,3.348-.05,5.156-.149,41.211-2.407,79.628-23.438,105.4-57.7,7.122-9.464,16.049-26.645,19.9-38.3,7.9-24.806,8.044-51.371.4-74.8-14.457-44.474-58.087-76.59-106.1-78.1-4.852-.2-8.8-.6-8.8-.9,0-1.246,2.141-1.878,6.363-1.878A120.523,120.523,0,0,1,684.8,236.6a123.048,123.048,0,0,1,21.391,5.111,119.658,119.658,0,0,1,19.759,8.7,116.228,116.228,0,0,1,17.659,12.02A113.282,113.282,0,0,1,780.086,317.6a117.882,117.882,0,0,1,4.308,22.042,123.318,123.318,0,0,1,.118,22.611,129.229,129.229,0,0,1-4.02,22.612,134.865,134.865,0,0,1-8.109,22.042A142.562,142.562,0,0,1,744.1,447a145.281,145.281,0,0,1-25.4,20.337A143.176,143.176,0,0,1,689.4,481.3C673.039,486.987,664.619,488.4,646.5,488.5Z" transform="translate(316.588 553.378) rotate(-17)" fill="#363636"/>
  </g>
</svg>
